<svg xmlns="http://www.w3.org/2000/svg" width="0" height="0" class="visually-hidden">
  	<symbol id="alert" viewBox="0 0 448 512">
    <path fill="currentColor"
          d="M224 512c35.32 0 63.97-28.65 63.97-64H160.03c0 35.35 28.65 64 63.97 64zm215.39-149.71c-19.32-20.76-55.47-51.99-55.47-154.29 0-77.7-54.48-139.9-127.94-155.16V32c0-17.67-14.32-32-31.98-32s-31.98 14.33-31.98 32v20.84C118.56 68.1 64.08 130.3 64.08 208c0 102.3-36.15 133.53-55.47 154.29-6 6.45-8.66 14.16-8.61 21.71.11 16.4 12.98 32 32.1 32h383.8c19.12 0 32-15.6 32.1-32 .05-7.55-2.61-15.27-8.61-21.71z"></path>
	</symbol>
	<symbol id="cfp" viewBox="0 0 352 512">
    <path fill="currentColor"
          d="M176 352c53.02 0 96-42.98 96-96V96c0-53.02-42.98-96-96-96S80 42.98 80 96v160c0 53.02 42.98 96 96 96zm160-160h-16c-8.84 0-16 7.16-16 16v48c0 74.8-64.49 134.82-140.79 127.38C96.71 376.89 48 317.11 48 250.3V208c0-8.84-7.16-16-16-16H16c-8.84 0-16 7.16-16 16v40.16c0 89.64 63.97 169.55 152 181.69V464H96c-8.84 0-16 7.16-16 16v16c0 8.84 7.16 16 16 16h160c8.84 0 16-7.16 16-16v-16c0-8.84-7.16-16-16-16h-56v-33.77C285.71 418.47 352 344.9 352 256v-48c0-8.84-7.16-16-16-16z"></path>
	</symbol>
	<symbol id="close" viewBox="0 0 352 512">
    <path fill="currentColor"
          d="M242.72 256l100.07-100.07c12.28-12.28 12.28-32.19 0-44.48l-22.24-22.24c-12.28-12.28-32.19-12.28-44.48 0L176 189.28 75.93 89.21c-12.28-12.28-32.19-12.28-44.48 0L9.21 111.45c-12.28 12.28-12.28 32.19 0 44.48L109.28 256 9.21 356.07c-12.28 12.28-12.28 32.19 0 44.48l22.24 22.24c12.28 12.28 32.2 12.28 44.48 0L176 322.72l100.07 100.07c12.28 12.28 32.2 12.28 44.48 0l22.24-22.24c12.28-12.28 12.28-32.19 0-44.48L242.72 256z"></path>
	</symbol>
	<symbol id="direction" viewBox="0 0 512 512">
    <path fill="currentColor"
          d="M502.61 233.32L278.68 9.39c-12.52-12.52-32.83-12.52-45.36 0L9.39 233.32c-12.52 12.53-12.52 32.83 0 45.36l223.93 223.93c12.52 12.53 32.83 12.53 45.36 0l223.93-223.93c12.52-12.53 12.52-32.83 0-45.36zm-100.98 12.56l-84.21 77.73c-5.12 4.73-13.43 1.1-13.43-5.88V264h-96v64c0 4.42-3.58 8-8 8h-32c-4.42 0-8-3.58-8-8v-80c0-17.67 14.33-32 32-32h112v-53.73c0-6.97 8.3-10.61 13.43-5.88l84.21 77.73c3.43 3.17 3.43 8.59 0 11.76z"></path>
	</symbol>
	<symbol id="email" viewBox="0 0 512 512">
    <path fill="currentColor"
          d="M502.3 190.8c3.9-3.1 9.7-.2 9.7 4.7V400c0 26.5-21.5 48-48 48H48c-26.5 0-48-21.5-48-48V195.6c0-5 5.7-7.8 9.7-4.7 22.4 17.4 52.1 39.5 154.1 113.6 21.1 15.4 56.7 47.8 92.2 47.6 35.7.3 72-32.8 92.3-47.6 102-74.1 131.6-96.3 154-113.7zM256 320c23.2.4 56.6-29.2 73.4-41.4 132.7-96.3 142.8-104.7 173.4-128.7 5.8-4.5 9.2-11.5 9.2-18.9v-19c0-26.5-21.5-48-48-48H48C21.5 64 0 85.5 0 112v19c0 7.4 3.4 14.3 9.2 18.9 30.6 23.9 40.7 32.4 173.4 128.7 16.8 12.2 50.2 41.8 73.4 41.4z"></path>
	</symbol>
	<symbol id="facebook" viewBox="0 0 264 512">
    <path fill="rgb(59,89,152)"
          d="M76.7 512V283H0v-91h76.7v-71.7C76.7 42.4 124.3 0 193.8 0c33.3 0 61.9 2.5 70.2 3.6V85h-48.2c-37.8 0-45.1 18-45.1 44.3V192H256l-11.7 91h-73.6v229"></path>
	</symbol>
	<symbol id="github" viewBox="0 0 496 512">
    <path fill="#000000"
          d="M165.9 397.4c0 2-2.3 3.6-5.2 3.6-3.3.3-5.6-1.3-5.6-3.6 0-2 2.3-3.6 5.2-3.6 3-.3 5.6 1.3 5.6 3.6zm-31.1-4.5c-.7 2 1.3 4.3 4.3 4.9 2.6 1 5.6 0 6.2-2s-1.3-4.3-4.3-5.2c-2.6-.7-5.5.3-6.2 2.3zm44.2-1.7c-2.9.7-4.9 2.6-4.6 4.9.3 2 2.9 3.3 5.9 2.6 2.9-.7 4.9-2.6 4.6-4.6-.3-1.9-3-3.2-5.9-2.9zM244.8 8C106.1 8 0 113.3 0 252c0 110.9 69.8 205.8 169.5 239.2 12.8 2.3 17.3-5.6 17.3-12.1 0-6.2-.3-40.4-.3-61.4 0 0-70 15-84.7-29.8 0 0-11.4-29.1-27.8-36.6 0 0-22.9-15.7 1.6-15.4 0 0 24.9 2 38.6 25.8 21.9 38.6 58.6 27.5 72.9 20.9 2.3-16 8.8-27.1 16-33.7-55.9-6.2-112.3-14.3-112.3-110.5 0-27.5 7.6-41.3 23.6-58.9-2.6-6.5-11.1-33.3 2.6-67.9 20.9-6.5 69 27 69 27 20-5.6 41.5-8.5 62.8-8.5s42.8 2.9 62.8 8.5c0 0 48.1-33.6 69-27 13.7 34.7 5.2 61.4 2.6 67.9 16 17.7 25.8 31.5 25.8 58.9 0 96.5-58.9 104.2-114.8 110.5 9.2 7.9 17 22.9 17 46.4 0 33.7-.3 75.4-.3 83.6 0 6.5 4.6 14.4 17.3 12.1C428.2 457.8 496 362.9 496 252 496 113.3 383.5 8 244.8 8zM97.2 352.9c-1.3 1-1 3.3.7 5.2 1.6 1.6 3.9 2.3 5.2 1 1.3-1 1-3.3-.7-5.2-1.6-1.6-3.9-2.3-5.2-1zm-10.8-8.1c-.7 1.3.3 2.9 2.3 3.9 1.6 1 3.6.7 4.3-.7.7-1.3-.3-2.9-2.3-3.9-2-.6-3.6-.3-4.3.7zm32.4 35.6c-1.6 1.3-1 4.3 1.3 6.2 2.3 2.3 5.2 2.6 6.5 1 1.3-1.3.7-4.3-1.3-6.2-2.2-2.3-5.2-2.6-6.5-1zm-11.4-14.7c-1.6 1-1.6 3.6 0 5.9 1.6 2.3 4.3 3.3 5.6 2.3 1.6-1.3 1.6-3.9 0-6.2-1.4-2.3-4-3.3-5.6-2z"></path>
	</symbol>
	<symbol id="link" viewBox="0 0 512 512">
    <path fill="currentColor"
          d="M326.612 185.391c59.747 59.809 58.927 155.698.36 214.59-.11.12-.24.25-.36.37l-67.2 67.2c-59.27 59.27-155.699 59.262-214.96 0-59.27-59.26-59.27-155.7 0-214.96l37.106-37.106c9.84-9.84 26.786-3.3 27.294 10.606.648 17.722 3.826 35.527 9.69 52.721 1.986 5.822.567 12.262-3.783 16.612l-13.087 13.087c-28.026 28.026-28.905 73.66-1.155 101.96 28.024 28.579 74.086 28.749 102.325.51l67.2-67.19c28.191-28.191 28.073-73.757 0-101.83-3.701-3.694-7.429-6.564-10.341-8.569a16.037 16.037 0 0 1-6.947-12.606c-.396-10.567 3.348-21.456 11.698-29.806l21.054-21.055c5.521-5.521 14.182-6.199 20.584-1.731a152.482 152.482 0 0 1 20.522 17.197zM467.547 44.449c-59.261-59.262-155.69-59.27-214.96 0l-67.2 67.2c-.12.12-.25.25-.36.37-58.566 58.892-59.387 154.781.36 214.59a152.454 152.454 0 0 0 20.521 17.196c6.402 4.468 15.064 3.789 20.584-1.731l21.054-21.055c8.35-8.35 12.094-19.239 11.698-29.806a16.037 16.037 0 0 0-6.947-12.606c-2.912-2.005-6.64-4.875-10.341-8.569-28.073-28.073-28.191-73.639 0-101.83l67.2-67.19c28.239-28.239 74.3-28.069 102.325.51 27.75 28.3 26.872 73.934-1.155 101.96l-13.087 13.087c-4.35 4.35-5.769 10.79-3.783 16.612 5.864 17.194 9.042 34.999 9.69 52.721.509 13.906 17.454 20.446 27.294 10.606l37.106-37.106c59.271-59.259 59.271-155.699.001-214.959z"></path>
	</symbol>
	<symbol id="linkedin" viewBox="0 0 448 512">
    <path fill="rgb(0,119,181)"
          d="M100.3 448H7.4V148.9h92.9V448zM53.8 108.1C24.1 108.1 0 83.5 0 53.8S24.1 0 53.8 0s53.8 24.1 53.8 53.8-24.1 54.3-53.8 54.3zM448 448h-92.7V302.4c0-34.7-.7-79.2-48.3-79.2-48.3 0-55.7 37.7-55.7 76.7V448h-92.8V148.9h89.1v40.8h1.3c12.4-23.5 42.7-48.3 87.9-48.3 94 0 111.3 61.9 111.3 142.3V448h-.1z"></path>
	</symbol>
	<symbol id="map-marker" viewBox="0 0 384 512" >
    <path fill="currentColor" d="M172.268 501.67C26.97 291.031 0 269.413 0 192 0 85.961 85.961 0 192 0s192 85.961 192 192c0 77.413-26.97 99.031-172.268 309.67-9.535 13.774-29.93 13.773-39.464 0zM192 272c44.183 0 80-35.817 80-80s-35.817-80-80-80-80 35.817-80 80 35.817 80 80 80z"></path>
	</symbol>
<?xml version="1.0" encoding="utf-8"?>
<!-- Generator: Adobe Illustrator 16.0.0, SVG Export Plug-In . SVG Version: 6.00 Build 0)  -->
<!DOCTYPE svg PUBLIC "-//W3C//DTD SVG 1.1//EN" "http://www.w3.org/Graphics/SVG/1.1/DTD/svg11.dtd">
<svg version="1.1" id="Layer_1" xmlns="http://www.w3.org/2000/svg" xmlns:xlink="http://www.w3.org/1999/xlink" x="0px" y="0px"
	 width="525px" height="500px" viewBox="0 0 525 500" enable-background="new 0 0 525 500" xml:space="preserve">
<path fill="#F64060" d="M452.753,321.453c0.041,45.508-32.731,84.711-77.295,92.419c-5.611,0.963-11.277,1.533-16.971,1.479
	c-1.92-0.021-2.674,0.747-3.283,2.506c-8.897,25.544-26.652,40.771-53.473,44.611c-17.743,2.538-33.844-2.22-47.958-13.313
	c-1.966-1.546-3.168-1.572-5.218-0.107c-16.508,11.807-35.017,17.036-55.229,15.815c-39.441-2.381-72.627-32.526-78.835-71.398
	c-0.427-2.687-0.881-5.394-0.922-8.102c-0.041-2.252-0.896-3.121-3.047-3.542c-11.941-2.328-22.777-7.246-32.337-14.729
	c-17.594-13.775-28.15-31.761-30.607-54.009c-2.802-25.464,5.063-47.481,22.975-65.828c1.444-1.472,1.534-2.497,0.549-4.228
	c-6.886-12.022-10.15-25.043-9.62-38.851c1.322-34.461,25.302-62.932,58.657-69.981c3.859-0.82,5.882-2.333,7.578-5.99
	c16.452-35.445,44.076-57.002,82.409-64.112c26.909-4.994,52.294,0.353,75.85,14.208c1.98,1.168,3.638,1.262,5.781,0.638
	c37.413-10.855,70.564-2.958,98.708,23.803c16.644,15.822,25.763,35.846,28.463,58.69c0.591,4.994,0.86,10.035,0.48,15.056
	c-0.143,1.899,0.441,2.693,2.239,3.358c16.866,6.243,28.496,17.885,33.584,35.105c6.337,21.42,1.014,40.203-14.992,55.821
	c-1.387,1.356-1.094,2.186-0.308,3.541C448.39,288.886,452.772,304.572,452.753,321.453z M285.814,314.146
	c0.014,19.363,12.444,36.477,30.071,42.292c8.834,2.917,17.946,4.301,27.195,4.708c6.603,0.285,13.195-0.176,19.296-3.217
	c4.797-2.395,7.057-6.351,6.84-11.622c-0.217-5.306-2.593-9.274-7.668-11.386c-1.764-0.733-3.555-1.33-5.428-1.655
	c-5.598-0.999-11.223-1.84-16.793-2.944c-9.193-1.831-13.048-6.697-13.17-15.993c-0.107-8.223,2.124-15.979,4.654-23.652
	c4.628-14.045,10.868-27.431,16.848-40.927c5.773-13.033,11.825-25.959,15.903-39.686c2.246-7.538,3.318-15.096,1.276-22.892
	c-3.108-11.833-10.199-19.764-22.426-22.045c-11.194-2.083-22.336-2.32-32.459,4.356c-3.366,2.212-6.603,1.683-9.525-0.896
	c-2.232-1.961-4.356-4.037-6.541-6.052c-10.326-9.533-23.978-10.001-35.064-1.295c-4.473,3.514-8.237,7.871-13.096,10.924
	c-4.342,2.727-8.72,3.5-13.528,0.936c-4.58-2.443-9.322-4.593-14.052-6.737c-4.791-2.164-9.432-4.837-14.825-5.292
	c-17.058-1.452-34.909,8.685-42.434,24.094c-3.339,6.819-6.065,13.903-8.65,21.033c-11.936,32.962-21.658,66.629-31.72,100.18
	c-4.506,15.016,0.812,29.792,13.527,37.902c9.92,6.322,20.782,7.885,32.027,4.506c9.11-2.742,14.099-10.075,17.586-18.313
	c11.588-27.329,22.024-55.122,33.07-82.668c3.04-7.58,5.983-15.192,9.208-22.69c3.256-7.571,12.612-10.15,18.162-5.129
	c3.388,3.065,4.281,7.145,3.949,11.507c-0.365,4.662-2.171,8.962-3.867,13.244c-7.187,18.17-14.507,36.287-21.726,54.443
	c-1.459,3.672-3.04,7.314-3.685,11.255c-1.105,6.767,1.574,12.765,7.109,15.152c5.647,2.437,11.509,2.844,17.363,0.719
	c6.812-2.469,10.883-7.802,14.019-13.964c10.775-21.16,21.467-42.372,32.235-63.533c4.974-9.776,10.035-19.506,15.116-29.224
	c1.888-3.602,4.1-7.015,7.627-9.254c3.184-2.015,6.615-2.165,9.879-0.332c3.185,1.784,3.398,5.042,3.264,8.258
	c-0.073,1.729-0.557,3.419-1.222,5.027c-1.396,3.344-2.7,6.738-4.248,10.016c-8.956,18.841-18.048,37.609-26.924,56.491
	C289.246,297.76,285.352,305.767,285.814,314.146z M411.438,453.001c0.021-12.498-10.455-22.948-23.056-22.982
	c-12.912-0.047-23.387,10.286-23.443,23.104c-0.054,12.53,10.6,23.162,23.199,23.178
	C400.915,476.314,411.418,465.812,411.438,453.001z M21.931,261.48c12.152,0.027,22.377-10.13,22.329-22.173
	c-0.055-12.063-10.062-22.065-22.112-22.099C9.798,217.175-0.007,226.973,0,239.342C0.01,251.581,9.786,261.453,21.931,261.48z
	 M294.038,13.766c-12.213-0.068-22.167,9.696-22.236,21.8c-0.074,12.091,9.845,22.025,21.997,22.038
	c12.104,0.007,21.826-9.689,21.848-21.801C315.676,23.632,306.061,13.827,294.038,13.766z M473.854,150.79
	c-0.054-10.036-8.61-18.571-18.686-18.639c-10.286-0.074-18.999,8.618-18.93,18.883c0.073,10.239,8.379,18.448,18.679,18.462
	C465.528,169.517,473.914,161.226,473.854,150.79z M88.601,97.201c0,9.425,7.335,16.82,16.698,16.834
	c9.484,0.013,16.841-7.422,16.807-16.983c-0.034-9.274-7.382-16.528-16.712-16.5C95.799,80.571,88.606,87.702,88.601,97.201z
	 M264.007,485.922c0.081-7.85-6.378-14.315-14.317-14.343c-8.149-0.025-14.549,6.29-14.528,14.33
	c0.021,7.931,6.388,14.214,14.394,14.214C257.555,500.13,263.938,493.86,264.007,485.922z M487.981,262.879
	c-7.627-0.055-14.243,6.561-14.182,14.181c0.066,7.53,6.352,13.712,13.964,13.727c7.98,0.015,13.965-5.861,13.984-13.747
	C501.769,269.236,495.641,262.933,487.981,262.879z M152.997-0.123c-6.724-0.027-11.914,5.109-11.914,11.8
	c0,6.649,5.244,11.819,11.962,11.785c6.52-0.034,11.629-5.232,11.629-11.834C164.675,4.965,159.646-0.089,152.997-0.123z
	 M514.591,199.506c-5.481-0.062-10.448,4.844-10.517,10.401c-0.074,5.747,4.709,10.53,10.544,10.544
	c5.795,0.021,10.34-4.485,10.381-10.306C525.054,204.29,520.439,199.58,514.591,199.506z M99.538,406.504
	c0.026-5.564-4.771-10.354-10.422-10.407c-5.728-0.049-10.437,4.77-10.396,10.632c0.047,5.727,4.695,10.251,10.484,10.211
	C94.884,416.905,99.519,412.23,99.538,406.504z"/>
	</symbol>

	<symbol id="menu" viewBox="0 0 448 512">
    <path fill="currentColor"
          d="M16 132h416c8.837 0 16-7.163 16-16V76c0-8.837-7.163-16-16-16H16C7.163 60 0 67.163 0 76v40c0 8.837 7.163 16 16 16zm0 160h416c8.837 0 16-7.163 16-16v-40c0-8.837-7.163-16-16-16H16c-8.837 0-16 7.163-16 16v40c0 8.837 7.163 16 16 16zm0 160h416c8.837 0 16-7.163 16-16v-40c0-8.837-7.163-16-16-16H16c-8.837 0-16 7.163-16 16v40c0 8.837 7.163 16 16 16z"></path>
	</symbol>
	<symbol id="right" viewBox="0 0 512 512">
    <path fill="currentColor"
          d="M256 8c137 0 248 111 248 248S393 504 256 504 8 393 8 256 119 8 256 8zM140 300h116v70.9c0 10.7 13 16.1 20.5 8.5l114.3-114.9c4.7-4.7 4.7-12.2 0-16.9l-114.3-115c-7.6-7.6-20.5-2.2-20.5 8.5V212H140c-6.6 0-12 5.4-12 12v64c0 6.6 5.4 12 12 12z"></path>
	</symbol>
	<symbol id="scroll-down" viewBox="0 0 25.166666 37.8704414">
    <path fill="none" stroke="currentColor" stroke-width="2.5" stroke-miterlimit="10"
          d="M12.5833445 36.6204414h-0.0000229C6.3499947 36.6204414 1.25 31.5204487 1.25 25.2871208V12.5833216C1.25 6.3499947 6.3499951 1.25 12.5833216 1.25h0.0000229c6.2333269 0 11.3333216 5.0999947 11.3333216 11.3333216v12.7037992C23.916666 31.5204487 18.8166714 36.6204414 12.5833445 36.6204414z"></path>
    <path style="animation: scrollDownMove .8s ease-in-out alternate infinite;" fill="currentColor"
          d="M13.0833359 19.2157116h-0.9192753c-1.0999985 0-1.9999971-0.8999996-1.9999971-1.9999981v-5.428606c0-1.0999994 0.8999987-1.9999981 1.9999971-1.9999981h0.9192753c1.0999985 0 1.9999981 0.8999987 1.9999981 1.9999981v5.428606C15.083334 18.315712 14.1833344 19.2157116 13.0833359 19.2157116z"></path>
	</symbol>
	<symbol id="site" viewBox="0 0 496 512">
    <path fill="currentColor"
          d="M336.5 160C322 70.7 287.8 8 248 8s-74 62.7-88.5 152h177zM152 256c0 22.2 1.2 43.5 3.3 64h185.3c2.1-20.5 3.3-41.8 3.3-64s-1.2-43.5-3.3-64H155.3c-2.1 20.5-3.3 41.8-3.3 64zm324.7-96c-28.6-67.9-86.5-120.4-158-141.6 24.4 33.8 41.2 84.7 50 141.6h108zM177.2 18.4C105.8 39.6 47.8 92.1 19.3 160h108c8.7-56.9 25.5-107.8 49.9-141.6zM487.4 192H372.7c2.1 21 3.3 42.5 3.3 64s-1.2 43-3.3 64h114.6c5.5-20.5 8.6-41.8 8.6-64s-3.1-43.5-8.5-64zM120 256c0-21.5 1.2-43 3.3-64H8.6C3.2 212.5 0 233.8 0 256s3.2 43.5 8.6 64h114.6c-2-21-3.2-42.5-3.2-64zm39.5 96c14.5 89.3 48.7 152 88.5 152s74-62.7 88.5-152h-177zm159.3 141.6c71.4-21.2 129.4-73.7 158-141.6h-108c-8.8 56.9-25.6 107.8-50 141.6zM19.3 352c28.6 67.9 86.5 120.4 158 141.6-24.4-33.8-41.2-84.7-50-141.6h-108z"></path>
	</symbol>
	<symbol id="subscribe" viewBox="0 0 512 512">
    <path fill="currentColor"
          d="M440 6.5L24 246.4c-34.4 19.9-31.1 70.8 5.7 85.9L144 379.6V464c0 46.4 59.2 65.5 86.6 28.6l43.8-59.1 111.9 46.2c5.9 2.4 12.1 3.6 18.3 3.6 8.2 0 16.3-2.1 23.6-6.2 12.8-7.2 21.6-20 23.9-34.5l59.4-387.2c6.1-40.1-36.9-68.8-71.5-48.9zM192 464v-64.6l36.6 15.1L192 464zm212.6-28.7l-153.8-63.5L391 169.5c10.7-15.5-9.5-33.5-23.7-21.2L155.8 332.6 48 288 464 48l-59.4 387.3z"></path>
	</symbol>
	<symbol id="ticket" viewBox="0 0 576 512">
    <path fill="currentColor"
          d="M128 160h320v192H128V160zm400 96c0 26.51 21.49 48 48 48v96c0 26.51-21.49 48-48 48H48c-26.51 0-48-21.49-48-48v-96c26.51 0 48-21.49 48-48s-21.49-48-48-48v-96c0-26.51 21.49-48 48-48h480c26.51 0 48 21.49 48 48v96c-26.51 0-48 21.49-48 48zm-48-104c0-13.255-10.745-24-24-24H120c-13.255 0-24 10.745-24 24v208c0 13.255 10.745 24 24 24h336c13.255 0 24-10.745 24-24V152z"></path>
	</symbol>
	<symbol id="twitter" viewBox="0 0 512 512">
    <path fill="rgb(64,153,255)"
          d="M459.37 151.716c.325 4.548.325 9.097.325 13.645 0 138.72-105.583 298.558-298.558 298.558-59.452 0-114.68-17.219-161.137-47.106 8.447.974 16.568 1.299 25.34 1.299 49.055 0 94.213-16.568 130.274-44.832-46.132-.975-84.792-31.188-98.112-72.772 6.498.974 12.995 1.624 19.818 1.624 9.421 0 18.843-1.3 27.614-3.573-48.081-9.747-84.143-51.98-84.143-102.985v-1.299c13.969 7.797 30.214 12.67 47.431 13.319-28.264-18.843-46.781-51.005-46.781-87.391 0-19.492 5.197-37.36 14.294-52.954 51.655 63.675 129.3 105.258 216.365 109.807-1.624-7.797-2.599-15.918-2.599-24.04 0-57.828 46.782-104.934 104.934-104.934 30.213 0 57.502 12.67 76.67 33.137 23.715-4.548 46.456-13.32 66.599-25.34-7.798 24.366-24.366 44.833-46.132 57.827 21.117-2.273 41.584-8.122 60.426-16.243-14.292 20.791-32.161 39.308-52.628 54.253z"></path>
	</symbol>
	<symbol id="vk" width="192" height="192" viewBox="0 0 192 192">
  <g fill="none" fill-rule="evenodd">
    <path fill="#5181B8" d="M66.56,0 C120.32,0 71.68,0 125.44,0 C179.2,0 192,12.8 192,66.56 C192,120.32 192,71.68 192,125.44 C192,179.2 179.2,192 125.44,192 C71.68,192 120.32,192 66.56,192 C12.8,192 0,179.2 0,125.44 C0,71.68 0,96.580329 0,66.56 C0,12.8 12.8,0 66.56,0 Z"/>
    <path fill="#FFFFFF" d="M157.233993,66.1462211 C158.123557,63.1797719 157.233994,61 153.000244,61 L139.000244,61 C135.440505,61 133.799415,62.8830035 132.909356,64.9593945 C132.909356,64.9593945 125.789878,82.3129373 115.704198,93.5851974 C112.441227,96.8481681 110.957879,97.8863636 109.178009,97.8863636 C108.288198,97.8863636 107,96.8481681 107,93.8819658 L107,66.1462211 C107,62.586482 105.96694,61 103.000244,61 L81.0002441,61 C78.7757158,61 77.4378669,62.6521562 77.4378669,64.2179674 C77.4378669,67.5925348 82.4804603,68.3707494 83.0002441,77.8633869 L83.0002441,98.4799003 C83.0002441,103 82.1839388,103.819509 80.4040693,103.819509 C75.6579974,103.819509 64.1131647,86.388441 57.2660122,66.4427426 C55.9241353,62.5659897 54.5782535,61 51.0002441,61 L37.0002441,61 C33.0002441,61 32.2001953,62.8830035 32.2001953,64.9593945 C32.2001953,68.6675178 36.9465141,87.059256 54.2998099,111.383646 C65.8685915,127.995268 82.1682449,137 97.0002441,137 C105.899345,137 107.000244,135 107.000244,131.555007 L107.000244,119 C107.000244,115 107.843292,114.201711 110.661357,114.201711 C112.737749,114.201711 116.297488,115.239906 124.603545,123.249196 C134.095936,132.741586 135.660882,137 141.000244,137 L155.000244,137 C159.000244,137 161.000244,135 159.846475,131.053112 C158.583906,127.119411 154.051802,121.412135 148.038124,114.646617 C144.774906,110.790356 139.88045,106.637574 138.397102,104.560689 C136.320711,101.891255 136.914001,100.704429 138.397102,98.3315162 C138.397102,98.3315162 155.454123,74.3036478 157.233993,66.1462211 Z"/>
  </g>
	</symbol>

	<symbol id="youtube" viewBox="0 0 576 512">
    <path fill="rgb(205,32,31)"
          d="M549.655 124.083c-6.281-23.65-24.787-42.276-48.284-48.597C458.781 64 288 64 288 64S117.22 64 74.629 75.486c-23.497 6.322-42.003 24.947-48.284 48.597-11.412 42.867-11.412 132.305-11.412 132.305s0 89.438 11.412 132.305c6.281 23.65 24.787 41.5 48.284 47.821C117.22 448 288 448 288 448s170.78 0 213.371-11.486c23.497-6.321 42.003-24.171 48.284-47.821 11.412-42.867 11.412-132.305 11.412-132.305s0-89.438-11.412-132.305zm-317.51 213.508V175.185l142.739 81.205-142.739 81.201z"></path>
	</symbol>
</svg>